<svg height="512pt" viewBox="0 0 512.00049 512" width="512pt" xmlns="http://www.w3.org/2000/svg"><path d="m511.976562 244.027344c-.273437-5.234375-3.082031-10.042969-7.5-12.851563l-38.304687-24.367187 23.101563-39.15625c2.667968-4.519532 2.988281-10.074219.851562-14.871094-2.132812-4.789062-6.476562-8.269531-11.617188-9.3125l-44.441406-8.976562 7.574219-44.867188c.871094-5.175781-.828125-10.480469-4.542969-14.1875-3.710937-3.707031-9.015625-5.394531-14.1875-4.515625l-44.675781 7.582031-8.960937-44.613281c-1.015626-5.0625-4.417969-9.378906-9.097657-11.546875-4.683593-2.167969-10.171875-1.972656-14.679687.523438l-45.84375 25.34375-31.105469-41.679688c-3.058594-4.097656-7.910156-6.53125-13.015625-6.53125-.0625 0-.128906 0-.191406 0-5.175782.0625-10.054688 2.621094-13.058594 6.851562l-26.265625 37.070313-37.730469-25.144531c-4.375-2.910156-9.910156-3.523438-14.816406-1.640625-4.90625 1.882812-8.609375 6.046875-9.914062 11.136719l-11.269532 44.03125-44.210937-9.914063c-5.121094-1.148437-10.511719.261719-14.414063 3.777344-3.902344 3.511719-5.875 8.726562-5.269531 13.9375l5.21875 45.183593-44.832031 6.632813c-5.191406.765625-9.714844 4.011719-12.097656 8.683594-2.386719 4.675781-2.359376 10.242187.066406 14.898437l21.027344 40.320313-39.523438 22.320312c-4.5625 2.578125-7.613281 7.230469-8.1601562 12.441407-.5507818 5.210937 1.4648442 10.394531 5.3945312 13.875l34.039063 30.082031-28.925782 35.050781c-3.339844 4.042969-4.519531 9.476562-3.167968 14.542969 1.355468 5.0625 5.097656 9.183593 10.019531 11.019531l42.503906 15.84375-14.476563 43.113281c-1.675781 4.976563-.832031 10.484375 2.257813 14.730469 3.054687 4.195312 7.949219 6.6875 13.128906 6.6875h.175781l45.316407-.480469 1.894531 45.429688c.214844 5.25 2.976562 10.09375 7.382812 12.953125 4.40625 2.863281 9.949219 3.414062 14.835938 1.472656l42.113281-16.726562 17.992188 41.710937c2.085937 4.828125 6.394531 8.363281 11.539062 9.453125 5.140625 1.09375 10.515625-.382812 14.378907-3.949219l33.339843-30.746093 31.6875 32.453124c3.078125 3.152344 7.289063 4.898438 11.628907 4.898438.839843 0 1.683593-.066406 2.523437-.199219 5.1875-.820312 9.683594-4.117187 12.019531-8.835937l20.148438-40.707032 41.179687 18.914063c4.777344 2.191406 10.339844 1.933594 14.890625-.691406 4.550782-2.625 7.5625-7.316407 8.054688-12.546875l4.261718-45.273438 45.222657 2.859375c5.238281.328125 10.335937-1.90625 13.640625-5.980469 3.304687-4.078124 4.433594-9.53125 3.027344-14.585937l-12.207032-43.824219 43.265625-13.585937c5.003907-1.566407 8.960938-5.484375 10.582031-10.472657 1.625-4.988281.730469-10.480468-2.394531-14.695312l-27.0625-36.523438 35.558594-28.25c4.105469-3.261718 6.394531-8.335937 6.117187-13.574218zm-70.75 26.605468-.007812.003907c-6.890625 5.484375-8.183594 15.316406-2.941406 22.386719l23.480468 31.6875-37.542968 11.789062c-8.40625 2.640625-13.140625 11.359375-10.777344 19.855469l10.585938 38.003906-39.226563-2.480469c-8.816406-.554687-16.363281 5.898438-17.1875 14.6875l-3.695313 39.246094-35.691406-16.390625c-8.039062-3.695313-17.410156-.382813-21.339844 7.550781l-17.460937 35.28125-27.460937-28.128906c-3.199219-3.277344-7.402344-4.929688-11.617188-4.929688-3.929688 0-7.871094 1.4375-11.015625 4.332032l-28.898437 26.652344-15.59375-36.148438c-3.5-8.125-12.683594-11.929688-20.90625-8.664062l-36.511719 14.5-1.644531-39.398438c-.371094-8.816406-7.574219-15.609375-16.394532-15.558594l-39.304687.417969 12.558593-37.394531c2.808594-8.355469-1.460937-17.3125-9.722656-20.394532l-36.878906-13.746093 25.097656-30.410157c5.609375-6.796874 4.828125-16.6875-1.769531-22.511718l-29.535156-26.101563 34.285156-19.363281c7.675781-4.332031 10.496094-13.847656 6.417969-21.660156l-18.242188-34.976563 38.890625-5.753906c8.734375-1.285156 14.78125-9.164063 13.765625-17.933594l-4.523437-39.179687 38.335937 8.601562c8.636719 1.933594 17.101563-3.261718 19.285156-11.824218l9.769532-38.167969 32.699218 21.792969c7.367188 4.90625 17.136719 3.09375 22.253907-4.125l23.058593-32.542969 26.972657 36.136719c4.828125 6.472656 13.796875 8.40625 20.871093 4.503906l39.898438-22.058594 7.894531 39.292969c1.746094 8.65625 9.929688 14.273437 18.636719 12.804687l38.742188-6.574218-6.566407 38.878906c-1.480469 8.707031 4.144531 16.894531 12.792969 18.636718l38.558594 7.792969-20.042969 33.96875c-4.476563 7.585938-2.164063 17.230469 5.269531 21.960938l33.234375 21.144531zm0 0"/><path d="m256 112.148438c-79.320312 0-143.851562 64.53125-143.851562 143.851562s64.53125 143.851562 143.851562 143.851562 143.851562-64.53125 143.851562-143.851562-64.53125-143.851562-143.851562-143.851562zm0 257.703124c-62.777344 0-113.851562-51.074218-113.851562-113.851562s51.074218-113.851562 113.851562-113.851562 113.851562 51.074218 113.851562 113.851562-51.074218 113.851562-113.851562 113.851562zm0 0"/></svg>